<svg xmlns="http://www.w3.org/2000/svg" version="1.1" xmlns:xlink="http://www.w3.org/1999/xlink" xmlns:svgjs="http://svgjs.dev/svgjs" width="1000" height="196" viewBox="0 0 1000 196"><g transform="matrix(1,0,0,1,-0.6060606060606233,-0.43770505218661526)"><svg viewBox="0 0 396 78" data-background-color="#ffffff" preserveAspectRatio="xMidYMid meet" height="196" width="1000" xmlns="http://www.w3.org/2000/svg" xmlns:xlink="http://www.w3.org/1999/xlink"><g id="tight-bounds" transform="matrix(1,0,0,1,0.2400000000000091,0.17418874525793626)"><svg viewBox="0 0 395.52 77.65162250948414" height="77.65162250948414" width="395.52"><g><svg viewBox="0 0 552.8160622611365 108.53323266555739" height="77.65162250948414" width="395.52"><g><rect width="4.464320207577238" height="108.53323266555739" x="141.14503993948279" y="0" fill="#c2dad5" opacity="1" stroke-width="0" stroke="transparent" fill-opacity="1" class="rect-s$-0" data-fill-palette-color="primary" rx="1%" id="s$-0" data-palette-color="#c2dad5"></rect></g><g transform="matrix(1,0,0,1,157.29606226113657,0.2699831658347165)"><svg viewBox="0 0 395.52 107.99326633388796" height="107.99326633388796" width="395.52"><g id="textblocktransform"><svg viewBox="0 0 395.52 107.99326633388796" height="107.99326633388796" width="395.52" id="textblock"><g><svg viewBox="0 0 395.52 107.99326633388796" height="107.99326633388796" width="395.52"><g transform="matrix(1,0,0,1,0,0)"><svg width="395.52" viewBox="0.5399999999999983 -32.28 264.35 69.12" height="107.99326633388796" data-palette-color="#c2dad5"><svg></svg><svg></svg><g class="undefined-text-0" data-fill-palette-color="primary" id="text-0"><path d="M16.89-20.34v0h14.48c0.927 1.353 1.39 2.993 1.39 4.92 0 1.933-0.397 3.5-1.19 4.7v0h-1v7.33c-3.207 2.78-7.44 4.17-12.7 4.17v0c-3.207 0-6.053-0.57-8.54-1.71v0c-2.72-1.22-4.83-3-6.33-5.34v0c-1.64-2.573-2.46-5.733-2.46-9.48v0c0-5.32 1.593-9.437 4.78-12.35v0c3.027-2.787 7.13-4.18 12.31-4.18v0c2.553 0 4.967 0.383 7.24 1.15 2.267 0.767 4.06 1.72 5.38 2.86v0c0 0.973-0.117 2.17-0.35 3.59-0.24 1.413-0.54 2.493-0.9 3.24v0h-12.86c-0.52 0.553-1.013 1.353-1.48 2.4-0.467 1.04-0.7 2.237-0.7 3.59v0c0 1.853 0.467 3.31 1.4 4.37v0c0.813 0.96 1.853 1.44 3.12 1.44v0c0.52 0 0.78-0.18 0.78-0.54v0-0.56h-0.27c-1.073 0-1.963-0.42-2.67-1.26-0.707-0.84-1.06-2.04-1.06-3.6v0c0-1.953 0.543-3.533 1.63-4.74zM48.02-16.04c0.133 0.133 0.337 0.2 0.61 0.2 0.28 0 0.517-0.06 0.71-0.18v0c-0.42-2.473-0.703-3.937-0.85-4.39v0c-0.18-0.473-0.45-0.71-0.81-0.71v0c-0.16 0-0.357 0.05-0.59 0.15v0zM43.19-8.72v0c-0.167 0.233-0.25 0.447-0.25 0.64v0c0 0.473 0.443 0.867 1.33 1.18 0.893 0.32 1.973 0.52 3.24 0.6v0c0.213 2.347 0.44 3.683 0.68 4.01v0c-0.307 0.6-1.16 1.203-2.56 1.81-1.4 0.613-2.98 0.92-4.74 0.92v0c-2.327 0-4.32-0.5-5.98-1.5-1.66-1-2.49-2.29-2.49-3.87v0c0-0.427 0.04-0.8 0.12-1.12v0l5.2-23.25c1.307-0.827 2.863-1.477 4.67-1.95 1.807-0.473 3.687-0.71 5.64-0.71v0c2.8 0 5.19 0.473 7.17 1.42v0c2.267 1.073 3.643 2.627 4.13 4.66v0l5.57 23.02c-1.693 2.2-4.453 3.3-8.28 3.3v0c-1.853 0-3.423-0.333-4.71-1-1.287-0.667-2.037-1.62-2.25-2.86v0l-0.53-2.98c0.973-0.013 1.917-0.2 2.83-0.56 0.907-0.36 1.36-0.733 1.36-1.12v0c0-0.26-0.103-0.473-0.31-0.64v0c-0.62 0.44-1.377 0.777-2.27 1.01-0.9 0.227-1.73 0.34-2.49 0.34v0c-2.2 0-3.893-0.45-5.08-1.35zM93.14 0.44v0c-2.233 0-3.983-0.367-5.25-1.1v0c-1.367-0.767-2.107-1.85-2.22-3.25v0l-0.22-2.29c1.5-0.36 2.76-1.287 3.78-2.78v0c0.28-0.427 0.42-0.793 0.42-1.1v0c0-0.427-0.213-0.64-0.64-0.64v0h-0.07c-0.013 0.02-0.047 0.03-0.1 0.03v0c-1.14 2.393-2.987 3.59-5.54 3.59v0c-1.3 0-2.41-0.287-3.33-0.86-0.92-0.567-1.763-1.55-2.53-2.95v0h-0.15c-0.433 0-0.65 0.187-0.65 0.56v0c0 0.26 0.097 0.553 0.29 0.88v0c0.653 1.087 1.467 1.94 2.44 2.56v0c0.767 0.52 1.573 0.83 2.42 0.93v0l-0.2 4.61c-0.973 0.633-2.003 1.093-3.09 1.38-1.08 0.287-2.617 0.43-4.61 0.43-1.993 0-3.773-0.39-5.34-1.17v0c-1.92-0.96-2.88-2.297-2.88-4.01v0c0-2.127 0.423-7.39 1.27-15.79v0c0.46-4.38 0.827-7.44 1.1-9.18v0c1.68-1.5 4.153-2.25 7.42-2.25v0c2.38 0 4.35 0.44 5.91 1.32v0l1.34 4.49-0.85 3.59c-0.067 0.247-0.1 0.483-0.1 0.71v0c0 0.567 0.327 0.86 0.98 0.88v0l2.32-9.65c0.667-0.353 1.537-0.667 2.61-0.94 1.073-0.267 2.247-0.4 3.52-0.4v0c2.373 0 4.133 0.403 5.28 1.21 1.147 0.807 1.827 2.163 2.04 4.07v0c0.047 0.353 0.12 0.947 0.22 1.78v0c1.48 12.727 2.22 20.22 2.22 22.48v0c-1.807 1.907-4.41 2.86-7.81 2.86zM113.13-31.49v0h14.09c0.473 0.78 0.823 1.63 1.05 2.55 0.227 0.92 0.34 1.747 0.34 2.48v0c0 1.64-0.32 2.877-0.96 3.71-0.647 0.827-1.547 1.24-2.7 1.24v0h-9.84c-0.6 0-0.9 0.237-0.9 0.71v0 0.19c0 0.1 0.017 0.167 0.05 0.2v0h11.67c0.293 0.507 0.543 1.14 0.75 1.9v0c0.2 0.833 0.3 1.577 0.3 2.23v0c0 1.933-0.36 3.447-1.08 4.54v0h-5.29c-2.48 0-4.157 0.093-5.03 0.28-0.88 0.187-1.427 0.343-1.64 0.47v0c-0.213 0.147-0.32 0.337-0.32 0.57 0 0.227 0.113 0.403 0.34 0.53v0c0.847-0.273 1.737-0.467 2.67-0.58v0c1.22-0.113 2.547-0.17 3.98-0.17v0h6.86c0.993 1.4 1.49 3.083 1.49 5.05v0c0 1.107-0.14 2.163-0.42 3.17-0.273 1.013-0.69 1.827-1.25 2.44v0h-18.28c-2.02 0-3.64-0.487-4.86-1.46v0c-1.333-1.04-2-2.57-2-4.59v0-23.22c0-0.78 0.893-1.35 2.68-1.71 1.793-0.353 4.56-0.53 8.3-0.53z" fill="#c2dad5" fill-rule="nonzero" stroke="none" stroke-width="1" stroke-linecap="butt" stroke-linejoin="miter" stroke-miterlimit="10" stroke-dasharray="" stroke-dashoffset="0" font-family="none" font-weight="none" font-size="none" text-anchor="none" style="mix-blend-mode: normal" data-fill-palette-color="primary" opacity="1"></path><path transform="translate(0,36.06)" d="M15.55-14.72v-2.13c0-1.627-0.073-2.743-0.22-3.35-0.147-0.613-0.413-0.92-0.8-0.92v0c-0.247 0-0.467 0.083-0.66 0.25v0c0.033 0.293 0.08 0.683 0.14 1.17 0.067 0.487 0.1 1.527 0.1 3.12v0 1.59c0 1.107-0.023 1.913-0.07 2.42-0.053 0.5-0.093 0.93-0.12 1.29v0c-0.02 0.193-0.037 0.39-0.05 0.59v0c0.193 0.16 0.413 0.24 0.66 0.24v0c0.387 0 0.653-0.303 0.8-0.91 0.147-0.613 0.22-1.733 0.22-3.36zM12.62 0.02h-6.17c-1.807 0-3.203-0.48-4.19-1.44-0.987-0.96-1.48-2.407-1.48-4.34v0-21.97c0-1.24 1.24-2.287 3.72-3.14 2.487-0.853 5.26-1.28 8.32-1.28v0c5.387 0 9.593 1.3 12.62 3.9v0c3.253 2.8 4.88 6.977 4.88 12.53v0c0 4.993-1.573 8.867-4.72 11.62-3.153 2.747-7.48 4.12-12.98 4.12zM42.63-31.49v0h14.08c0.473 0.78 0.823 1.63 1.05 2.55 0.233 0.92 0.35 1.747 0.35 2.48v0c0 1.64-0.323 2.877-0.97 3.71-0.64 0.827-1.54 1.24-2.7 1.24v0h-9.84c-0.6 0-0.9 0.237-0.9 0.71v0 0.19c0 0.1 0.017 0.167 0.05 0.2v0h11.67c0.293 0.507 0.547 1.14 0.76 1.9v0c0.193 0.833 0.29 1.577 0.29 2.23v0c0 1.933-0.357 3.447-1.07 4.54v0h-5.3c-2.473 0-4.15 0.093-5.03 0.28-0.88 0.187-1.427 0.343-1.64 0.47v0c-0.207 0.147-0.31 0.337-0.31 0.57 0 0.227 0.113 0.403 0.34 0.53v0c0.847-0.273 1.733-0.467 2.66-0.58v0c1.22-0.113 2.547-0.17 3.98-0.17v0h6.86c0.993 1.4 1.49 3.083 1.49 5.05v0c0 1.107-0.14 2.163-0.42 3.17-0.273 1.013-0.687 1.827-1.24 2.44v0h-18.29c-2.02 0-3.64-0.487-4.86-1.46v0c-1.333-1.04-2-2.57-2-4.59v0-23.22c0-0.78 0.897-1.35 2.69-1.71 1.787-0.353 4.553-0.53 8.3-0.53zM74.15-26.9v0l-0.79 15.5c0.2 0.047 0.373 0.07 0.52 0.07v0c0.533 0 0.833-0.407 0.9-1.22v0l1.07-17.77c0.507-0.44 1.437-0.83 2.79-1.17v0c1.287-0.293 2.45-0.44 3.49-0.44v0c2.46 0 4.3 0.56 5.52 1.68 1.22 1.127 1.83 2.577 1.83 4.35v0c0 0.993-0.403 3.217-1.21 6.67-0.807 3.46-1.967 8.137-3.48 14.03v0c-0.553 2.067-1.8 3.557-3.74 4.47v0c-1.687 0.78-3.923 1.17-6.71 1.17v0c-1.76 0-3.42-0.197-4.98-0.59-1.56-0.387-2.813-0.947-3.76-1.68v0c-1.287-2.833-2.58-6.727-3.88-11.68-1.3-4.96-2.277-9.977-2.93-15.05v0c1.527-2.267 3.96-3.4 7.3-3.4v0c4.293 0 6.98 1.687 8.06 5.06zM101.54-31.49v0h14.09c0.467 0.78 0.813 1.63 1.04 2.55 0.233 0.92 0.35 1.747 0.35 2.48v0c0 1.64-0.323 2.877-0.97 3.71-0.64 0.827-1.54 1.24-2.7 1.24v0h-9.83c-0.607 0-0.91 0.237-0.91 0.71v0 0.19c0 0.1 0.017 0.167 0.05 0.2v0h11.67c0.293 0.507 0.547 1.14 0.76 1.9v0c0.193 0.833 0.29 1.577 0.29 2.23v0c0 1.933-0.357 3.447-1.07 4.54v0h-5.3c-2.473 0-4.15 0.093-5.03 0.28-0.88 0.187-1.427 0.343-1.64 0.47v0c-0.207 0.147-0.31 0.337-0.31 0.57 0 0.227 0.113 0.403 0.34 0.53v0c0.847-0.273 1.733-0.467 2.66-0.58v0c1.22-0.113 2.547-0.17 3.98-0.17v0h6.86c0.993 1.4 1.49 3.083 1.49 5.05v0c0 1.107-0.14 2.163-0.42 3.17-0.273 1.013-0.687 1.827-1.24 2.44v0h-18.29c-2.02 0-3.64-0.487-4.86-1.46v0c-1.333-1.04-2-2.57-2-4.59v0-23.22c0-0.78 0.897-1.35 2.69-1.71 1.787-0.353 4.553-0.53 8.3-0.53zM141.97 0.02h-17.75c-1.807 0-3.203-0.48-4.19-1.44-0.987-0.96-1.48-2.407-1.48-4.34v0-23.88c0.867-0.733 1.923-1.3 3.17-1.7 1.24-0.393 2.53-0.59 3.87-0.59v0c1.967 0 3.633 0.487 5 1.46v0c1.48 1.107 2.22 2.637 2.22 4.59v0 13.36c-0.907 0.08-1.8 0.333-2.68 0.76-0.88 0.433-1.32 0.88-1.32 1.34v0c0 0.273 0.153 0.507 0.46 0.7v0c1.613-1.347 4.007-2.02 7.18-2.02v0h5.79c1.073 1.887 1.61 3.813 1.61 5.78v0c0 0.98-0.173 2.063-0.52 3.25-0.34 1.187-0.793 2.097-1.36 2.73zM160.42-14.72v-2.13c0-1.627-0.07-2.743-0.21-3.35-0.147-0.613-0.417-0.92-0.81-0.92v0c-0.247 0-0.467 0.083-0.66 0.25v0c0.033 0.293 0.083 0.683 0.15 1.17 0.06 0.487 0.09 1.527 0.09 3.12v0 1.59c0 1.107-0.023 1.913-0.07 2.42-0.047 0.5-0.087 0.93-0.12 1.29v0c-0.02 0.193-0.037 0.39-0.05 0.59v0c0.193 0.16 0.413 0.24 0.66 0.24v0c0.393 0 0.663-0.303 0.81-0.91 0.14-0.613 0.21-1.733 0.21-3.36zM159.45 0.78v0c-2.9 0-5.557-0.597-7.97-1.79-2.42-1.2-4.37-3.033-5.85-5.5-1.48-2.467-2.22-5.547-2.22-9.24v0c0-5.353 1.61-9.537 4.83-12.55v0c2.867-2.653 6.553-3.98 11.06-3.98v0c4.9 0 8.78 1.52 11.64 4.56 2.853 3.033 4.28 7.023 4.28 11.97v0c0 5.5-1.53 9.7-4.59 12.6v0c-2.78 2.62-6.507 3.93-11.18 3.93zM190.19-20.85v4.47c0.06 0.047 0.247 0.07 0.56 0.07 0.307 0 0.543-0.12 0.71-0.36 0.16-0.247 0.24-0.647 0.24-1.2v0-1.86c0-0.587-0.07-1.003-0.21-1.25-0.14-0.253-0.367-0.38-0.68-0.38-0.32 0-0.537 0.033-0.65 0.1v0c0.02 0.08 0.03 0.217 0.03 0.41zM190.8-5.35v0 3.74c-0.72 0.6-1.73 1.093-3.03 1.48-1.3 0.38-2.66 0.57-4.08 0.57v0c-2.02 0-3.67-0.39-4.95-1.17v0c-1.467-0.9-2.2-2.193-2.2-3.88v0-23.2c0-0.52 0.353-1.04 1.06-1.56 0.707-0.52 1.687-0.993 2.94-1.42v0c2.687-0.907 5.757-1.36 9.21-1.36v0c4.767 0 8.567 1.187 11.4 3.56 2.833 2.38 4.25 5.573 4.25 9.58 0 4.013-1.28 7.137-3.84 9.37v0c-2.453 2.113-5.863 3.17-10.23 3.17v0c-0.993 0-2.053-0.117-3.18-0.35-1.133-0.24-1.897-0.45-2.29-0.63v0c-0.127 0.133-0.19 0.313-0.19 0.54v0c0 0.833 1.71 1.353 5.13 1.56zM217.41-31.49v0h14.08c0.473 0.78 0.823 1.63 1.05 2.55 0.233 0.92 0.35 1.747 0.35 2.48v0c0 1.64-0.323 2.877-0.97 3.71-0.64 0.827-1.54 1.24-2.7 1.24v0h-9.84c-0.6 0-0.9 0.237-0.9 0.71v0 0.19c0 0.1 0.017 0.167 0.05 0.2v0h11.67c0.293 0.507 0.547 1.14 0.76 1.9v0c0.193 0.833 0.29 1.577 0.29 2.23v0c0 1.933-0.357 3.447-1.07 4.54v0h-5.3c-2.473 0-4.15 0.093-5.03 0.28-0.88 0.187-1.427 0.343-1.64 0.47v0c-0.207 0.147-0.31 0.337-0.31 0.57 0 0.227 0.113 0.403 0.34 0.53v0c0.847-0.273 1.733-0.467 2.66-0.58v0c1.22-0.113 2.547-0.17 3.98-0.17v0h6.86c0.993 1.4 1.49 3.083 1.49 5.05v0c0 1.107-0.14 2.163-0.42 3.17-0.273 1.013-0.687 1.827-1.24 2.44v0h-18.29c-2.02 0-3.64-0.487-4.86-1.46v0c-1.333-1.04-2-2.57-2-4.59v0-23.22c0-0.78 0.897-1.35 2.69-1.71 1.787-0.353 4.553-0.53 8.3-0.53zM248.07-20.85v3.49c0.067 0.047 0.253 0.07 0.56 0.07 0.313 0 0.55-0.12 0.71-0.36 0.16-0.247 0.24-0.647 0.24-1.2v0-0.88c0-0.587-0.067-1.003-0.2-1.25-0.14-0.253-0.37-0.38-0.69-0.38-0.313 0-0.527 0.033-0.64 0.1v0c0.013 0.08 0.02 0.217 0.02 0.41zM260.67-11.79v0l4.22 4.32c-0.293 2.54-1.093 4.493-2.4 5.86-1.313 1.367-3.123 2.05-5.43 2.05v0c-1.747 0-3.263-0.417-4.55-1.25v0c-1.64-1.04-2.867-2.7-3.68-4.98v0l-0.88-2.39c-0.687-0.013-1.55-0.103-2.59-0.27v0c-0.127 0.133-0.19 0.313-0.19 0.54v0c0 0.44 0.657 0.7 1.97 0.78v0l1.4 3.52v2.07c-1.873 1.32-4.277 1.98-7.21 1.98v0c-2.1 0-3.777-0.43-5.03-1.29-1.253-0.867-1.88-2.12-1.88-3.76v0-23.2c0-0.713 0.66-1.41 1.98-2.09 1.32-0.673 3.047-1.217 5.18-1.63 2.133-0.413 4.263-0.62 6.39-0.62v0c4.887 0 8.703 1 11.45 3v0c2.9 2.1 4.35 5.053 4.35 8.86v0c0 2.18-0.613 4.047-1.84 5.6-1.233 1.56-2.783 2.64-4.65 3.24v0c0 0.52 0.313 0.78 0.94 0.78 0.627 0 1.443-0.373 2.45-1.12z" fill="#c2dad5" fill-rule="nonzero" stroke="none" stroke-width="1" stroke-linecap="butt" stroke-linejoin="miter" stroke-miterlimit="10" stroke-dasharray="" stroke-dashoffset="0" font-family="none" font-weight="none" font-size="none" text-anchor="none" style="mix-blend-mode: normal" data-fill-palette-color="primary" opacity="1"></path></g></svg></g></svg></g></svg></g></svg></g><g transform="matrix(1,0,0,1,0,0.2699831658347165)"><svg viewBox="0 0 129.45833782540623 107.99326633388796" height="107.99326633388796" width="129.45833782540623"><g><svg xmlns="http://www.w3.org/2000/svg" xmlns:xlink="http://www.w3.org/1999/xlink" version="1.1" x="0" y="0" viewBox="1.497 8 97.107 81.006" enable-background="new 0 0 100 100" xml:space="preserve" height="107.99326633388796" width="129.45833782540623" class="icon-icon-0" data-fill-palette-color="accent" id="icon-0"><g fill="#c2dad5" data-fill-palette-color="accent"><polygon fill="#c2dad5" points="9.598,89.006 98.604,89.006 98.604,16.101 58.201,16.101 58.201,24.201 90.503,24.201    90.503,80.905 17.698,80.905 17.698,56.604 9.598,56.604  " data-fill-palette-color="accent"></polygon><path fill="#c2dad5" d="M1.497 48.503h8.101v-8.101h8.101v8.101h8.101v-8.101h8.101v8.101H42v-8.101h8.101v8.101h8.101V32.302h-8.101V16.101H42V8h-8.101v8.101h-8.101V8h-8.101v8.101H9.598v16.201H1.497V48.503zM17.698 32.302v-8.101h8.101v8.101H17.698zM33.899 32.302v-8.101H42v8.101H33.899z" data-fill-palette-color="accent"></path></g></svg></g></svg></g></svg></g><defs></defs></svg><rect width="395.52" height="77.65162250948414" fill="none" stroke="none" visibility="hidden"></rect></g></svg></g></svg>